<?xml version="1.0" encoding="utf-8"?>
<!-- Generator: Adobe Illustrator 26.0.0, SVG Export Plug-In . SVG Version: 6.00 Build 0)  -->
<svg version="1.1" id="Layer_1" xmlns="http://www.w3.org/2000/svg" xmlns:xlink="http://www.w3.org/1999/xlink" x="0px" y="0px"
	 viewBox="0 0 566.9 566.9" style="enable-background:new 0 0 566.9 566.9;" xml:space="preserve">
<style type="text/css">
	.st0{fill:url(#SVGID_1_);}
</style>
<linearGradient id="SVGID_1_" gradientUnits="userSpaceOnUse" x1="266.7741" y1="374.5856" x2="332.6404" y2="260.5017">
	<stop  offset="0.1698" style="stop-color:#A343FF"/>
	<stop  offset="0.3842" style="stop-color:#9159FF"/>
	<stop  offset="0.8276" style="stop-color:#6291FE"/>
	<stop  offset="1" style="stop-color:#4FA8FE"/>
</linearGradient>
<path class="st0" d="M233.9,330.2c-1.7,0-3-1.3-3-3l0-12.6c0-1.7,1.3-3,3-3s3,1.3,3,3l0,12.6C236.9,328.9,235.5,330.2,233.9,330.2z
	 M247.4,327.2l0-12.6c0-1.7-1.3-3-3-3s-3,1.3-3,3l0,12.6c0,1.7,1.3,3,3,3S247.4,328.9,247.4,327.2z M354.6,329.4c1.7,0,3-1.3,3-3
	s-1.3-3-3-3l-12.6,0c-1.7,0-3,1.3-3,3s1.3,3,3,3L354.6,329.4z M354.6,319c1.7,0,3-1.3,3-3s-1.3-3-3-3l-12.6,0c-1.7,0-3,1.3-3,3
	s1.3,3,3,3L354.6,319z M309.7,326.8v-21.5c0-1.7-1.3-3-3-3s-3,1.3-3,3v21.5c0,1.7,1.3,3,3,3S309.7,328.5,309.7,326.8z M296.8,327.7
	v-22.4c0-1.7-1.3-3-3-3s-3,1.3-3,3v22.4c0,1.7,1.3,3,3,3S296.8,329.4,296.8,327.7z M284.1,327.1v-21.7c0-1.7-1.3-3-3-3s-3,1.3-3,3
	v21.7c0,1.7,1.3,3,3,3S284.1,328.8,284.1,327.1z M335.5,326.5l0-0.4c0-0.3,0.3-8.5,0.3-13.1c0-5,0.8-5,5.1-5
	c8.5,0,13.8,0.1,13.8,0.1c0,0,0,0,0.1,0c1.6,0,3-1.3,3-2.9c0-1.7-1.3-3-2.9-3.1c-0.1,0-5.4-0.1-13.9-0.1c-5.4,0-11.1,0.8-11.1,11
	c0,4-0.2,11.3-0.3,12.7c-0.1,0.7-0.9,3.4-3.7,3.4c-2.7,0-3.4-2.2-3.6-3c0-3.8-0.1-48.3-0.1-57.9c0-6.9-2.3-12.8-6.7-17
	c-4.8-4.6-11.8-7-20.4-6.8l-0.8,0c-9-0.3-16.4,2-21.4,6.8c-4.4,4.2-6.7,10.1-6.7,17c0,9.5-0.1,53.7-0.1,57.5
	c-0.2,0.9-0.9,3.1-3.6,3.1c-2.7,0-3.5-2.5-3.7-3.4l0-12.4c0-10.1-5.7-11-11.1-11c-8.6,0-14.4,0.1-14.5,0.1c-1.7,0-3,1.4-3,3
	c0,1.6,1.4,3,3,3c0,0,0,0,0,0c0.1,0,5.9-0.1,14.4-0.1c4.3,0,5.1,0,5.1,5l0,12.7l0,0.5c0.5,3,3.1,8.6,9.7,8.6c6.6,0,9.1-5.5,9.6-8.4
	l0-0.4c0,0,0.1-47.8,0.1-57.8c0-5.2,1.7-9.6,4.9-12.7c3.6-3.5,9.2-5.3,16.1-5.2l0.2,0.1l1.1,0c7.3-0.3,13.2,1.5,17,5.1
	c3.2,3.1,4.9,7.5,4.9,12.7c0,10,0.1,58.2,0.1,58.2l0,0.4c0.4,2.9,2.9,8.4,9.5,8.4C332.4,335.2,335,329.5,335.5,326.5z M313.2,278.2
	c0-4.6-3.8-8.4-8.4-8.4c-4.6,0-8.4,3.8-8.4,8.4s3.8,8.4,8.4,8.4C309.4,286.7,313.2,282.9,313.2,278.2z M307.2,278.2
	c0,1.3-1.1,2.4-2.4,2.4c-1.3,0-2.4-1.1-2.4-2.4s1.1-2.4,2.4-2.4C306.1,275.8,307.2,276.9,307.2,278.2z M249.3,284
	c0,0.6,0.1,1.8,0.8,3c0.1,0.2,0.4,0.6,0.9,1.1c1.8,1.8,4.3,1.9,4.9,1.9c0,0,0,0,0,0h7.8v-25.5h-7.9c-0.2,0-1,0-1.9,0.3
	c-0.4,0.1-1.8,0.5-2.9,1.7c-1.7,1.7-1.8,4-1.8,4.6 M338.8,271c0-0.4,0-2.7-1.8-4.6c-1.9-2-4.4-1.9-4.8-1.9h-7.9V290h7.8c0,0,0,0,0,0
	c0.6,0,3.1-0.1,4.9-1.9c0.5-0.5,0.8-0.9,0.9-1.1c0.7-1.2,0.8-2.4,0.8-3C338.8,279.6,338.8,275.3,338.8,271z M292.8,278.2
	c0-4.6-3.8-8.4-8.4-8.4s-8.4,3.8-8.4,8.4s3.8,8.4,8.4,8.4S292.8,282.9,292.8,278.2z M286.8,278.2c0,1.3-1.1,2.4-2.4,2.4
	s-2.4-1.1-2.4-2.4s1.1-2.4,2.4-2.4S286.8,276.9,286.8,278.2z M238.2,353.9l0.1-6.1l-2,6.1h-1.8l-2.1-6.2l0.2,6.2h-1.7V346h2.4l2,6.1
	l2-6.1h2.4v7.9H238.2z M266.6,353.9l-0.7,0l-0.3,0c-0.1,0-0.1,0-0.2,0c-0.1,0-0.1,0-0.1,0c0,0-0.1,0-0.1,0c-0.8-0.2-1.4-0.7-1.8-1.4
	c-0.2-0.3-0.3-0.6-0.4-1c-0.1-0.3-0.1-0.7-0.1-1.1c0-0.7,0.1-1.3,0.2-1.8c0.1-0.5,0.3-1,0.6-1.3c0.3-0.4,0.7-0.7,1.2-0.9
	c0.2-0.1,0.5-0.1,0.8-0.2c0.3,0,1.5-0.1,3.7-0.1v1.4h-2.7c-1.2,0-1.9,0.6-1.9,1.8h4.6v1.4h-4.6c0,0.3,0,0.6,0.1,0.8
	c0,0.1,0.1,0.2,0.1,0.3c0,0.1,0.1,0.2,0.2,0.3l0.3,0.3c0.1,0.1,0.2,0.1,0.4,0.2c0.1,0,0.3,0.1,0.4,0.1l3.2,0v1.4H266.6z
	 M295.7,353.9c-1.1,0-1.9-0.3-2.3-0.8c-0.5-0.5-0.7-2.9-0.7-7.1h1.6v4.3l0,0.5l0,0.6c0,0.5,0.2,0.8,0.6,1c0.3,0.2,1.3,0.2,3.1,0.2
	v1.3H295.7z M326.5,353.9l-0.7-1.9h-3.4l-0.7,1.9h-1.8l3.3-7.9h1.8l3.4,7.9H326.5z M324,347.6l-1.2,3h2.4L324,347.6z M357.2,353.4
	c-0.4,0.3-1.1,0.5-1.9,0.5h-4.3V346h4.1c0.3,0,0.5,0,0.6,0c0,0,0.1,0,0.3,0c0,0,0.1,0,0.2,0c0.3,0,0.7,0.1,1,0.3
	c0.4,0.1,0.6,0.4,0.7,0.8l0.1,0.5l0,0.6c0,0.3-0.1,0.5-0.3,0.9c-0.2,0.3-0.5,0.5-0.8,0.7c0.4,0.2,0.7,0.4,0.9,0.7
	c0.2,0.3,0.3,0.7,0.3,1.4C357.9,352.6,357.7,353.1,357.2,353.4z M355.8,347.6c-0.2-0.1-0.5-0.2-0.8-0.2h-2.4v1.8h2.4
	c0.3,0,0.6-0.1,0.8-0.2c0.2-0.1,0.3-0.4,0.3-0.7C356.1,348,356,347.8,355.8,347.6z M355.8,350.8c-0.2-0.2-1.3-0.2-3.2-0.2v1.9h2.4
	c0.3,0,0.6-0.1,0.8-0.2c0.2-0.1,0.3-0.4,0.3-0.7C356.1,351.2,356,351,355.8,350.8z"/>
</svg>
